<?xml version="1.0" encoding="utf-8"?>
<svg version="1.1" id="Layer_1" xmlns="http://www.w3.org/2000/svg" xmlns:xlink="http://www.w3.org/1999/xlink" x="0px" y="0px"
	 viewBox="0 0 603.2 153.3" style="enable-background:new 0 0 603.2 153.3;" xml:space="preserve">
<style type="text/css">
	.st0{fill:#0D2460;}
	.st1{fill:#3ABB69;}
</style>
<g>
	<g>
		<g>
			<g>
				<path class="st0" d="M131.5,39.8v-1.3h5.6v1.3H135v5.6h-1.5v-5.6H131.5z"/>
				<path class="st0" d="M140.1,38.5l1.6,4.7l0,0l1.5-4.7h2.1v6.9h-1.4v-4.9l0,0l-1.7,4.9H141l-1.7-4.8l0,0v4.8h-1.4v-6.9H140.1z"/>
			</g>
			<path class="st0" d="M112.6,107.2c0.8,0,1.5-0.2,2-0.5s0.9-0.7,1.1-1.2c0.3-0.5,0.5-1,0.5-1.6c0.1-0.6,0.1-1.2,0.1-1.7V85.3
				c0-1.5,0.3-2.7,0.8-3.7s1.2-1.7,1.9-2.3c0.7-0.6,1.5-1,2.3-1.3s1.4-0.4,1.9-0.5v-0.2c-0.5,0-1.2-0.2-1.9-0.4
				c-0.8-0.2-1.5-0.6-2.3-1.2c-0.7-0.6-1.3-1.4-1.9-2.4c-0.5-1-0.8-2.4-0.8-4.1V51.4c0-3.1-0.3-3.7-0.1-1.7
				c-0.1-0.6-0.2-1.1-0.5-1.6s-0.7-0.9-1.1-1.2c-0.5-0.3-1.1-0.5-2-0.5h-7.5v-7.8h12.6c0.8,0,1.7,0.2,2.7,0.6c1,0.4,1.9,1,2.8,1.7
				c0.9,0.8,1.6,1.7,2.2,2.9s0.9,2.6,0.9,4.1v20.4c0,1.2,0.2,2.1,0.7,3c0.5,0.8,1,1.5,1.7,2c0.6,0.5,1.3,0.8,2.1,1
				c0.7,0.2,1.4,0.3,1.9,0.3v6.1c-0.6,0-1.2,0.1-1.9,0.3c-0.7,0.2-1.4,0.5-2.1,1c-0.7,0.4-1.2,1-1.7,1.8c-0.5,0.7-0.7,1.6-0.7,2.7
				v19.2c0,1.6-0.3,3-0.9,4.1c-0.6,1.2-1.3,2.2-2.2,2.9c-0.9,0.8-1.8,1.3-2.8,1.7c-1,0.4-1.9,0.6-2.7,0.6h-12.6v-7.8L112.6,107.2z"
				/>
			<path class="st0" d="M58.3,46.3c-0.8,0-1.5,0.2-2,0.5s-0.9,0.7-1.1,1.2c-0.3,0.5-0.5,1-0.5,1.6c-0.1,0.6-0.1,1.2-0.1,1.7v18.5
				c0,1.5-0.3,2.7-0.8,3.7s-1.2,1.7-1.9,2.3c-0.7,0.6-1.5,1-2.3,1.3s-1.4,0.4-1.9,0.5v0.2c0.5,0,1.2,0.2,1.9,0.4
				c0.8,0.2,1.5,0.6,2.3,1.2c0.7,0.6,1.3,1.4,1.9,2.4c0.5,1,0.8,2.4,0.8,4.1v16.2c0,3.1,0.3,3.7,0.1,1.7c0.1,0.6,0.2,1.1,0.5,1.6
				s0.7,0.9,1.1,1.2c0.5,0.3,1.1,0.5,2,0.5H66v7.8H53.2c-0.8,0-1.7-0.2-2.7-0.6s-1.9-1-2.8-1.7c-0.9-0.8-1.6-1.7-2.2-2.9
				c-0.6-1.2-0.9-2.6-0.9-4.1V86.9c0-1.2-0.2-2.1-0.7-3c-0.5-0.8-1-1.5-1.7-2c-0.6-0.5-1.3-0.8-2.1-1c-0.7-0.2-1.4-0.3-1.9-0.3v-6.1
				c0.6,0,1.2-0.1,1.9-0.3c0.7-0.2,1.4-0.5,2.1-1c0.7-0.4,1.2-1,1.7-1.8c0.5-0.7,0.7-1.6,0.7-2.7V47.9c0-1.6,0.3-3,0.9-4.1
				c0.6-1.2,1.3-2.2,2.2-2.9c0.9-0.8,1.8-1.3,2.8-1.7s1.9-0.6,2.7-0.6H66v7.8h-7.7V46.3z"/>
			<circle class="st0" cx="85.6" cy="56.3" r="2.3"/>
			<circle class="st0" cx="73.6" cy="60.7" r="2.3"/>
			<circle class="st0" cx="67.3" cy="71.6" r="2.3"/>
			<circle class="st0" cx="69.5" cy="84.1" r="2.3"/>
			<circle class="st0" cx="101.6" cy="84.1" r="2.3"/>
			<circle class="st0" cx="103.8" cy="71.6" r="2.3"/>
			<circle class="st0" cx="97.5" cy="60.7" r="2.3"/>
			<g>
				<path class="st0" d="M90.1,94.9h-9c-1,0-1.7-0.8-1.7-1.7l0,0c0-1,0.8-1.7,1.7-1.7h9c1,0,1.7,0.8,1.7,1.7l0,0
					C91.8,94.1,91,94.9,90.1,94.9z"/>
				<path class="st0" d="M88.3,100.5h-5.5c-1,0-1.7-0.8-1.7-1.7l0,0c0-1,0.8-1.7,1.7-1.7h5.5c1,0,1.7,0.8,1.7,1.7l0,0
					C90.1,99.7,89.3,100.5,88.3,100.5z"/>
				<path class="st0" d="M98,74.6c0,3.7-2.1,7.6-4.8,10.4c-0.4,0.4-0.7,1-0.8,1.6l0,0c-0.2,1.4-1.5,2.5-2.9,2.5h-8
					c-1.4,0-2.7-1.1-2.9-2.5l0,0c-0.1-0.6-0.4-1.2-0.8-1.6c-2.7-2.8-4.8-6.7-4.8-10.4c0-6.9,5.6-12.5,12.5-12.5
					C92.5,62.1,98,67.7,98,74.6z"/>
			</g>
		</g>
		<g>
			<g>
				<path class="st0" d="M212.3,52.3c0,8.4-5.9,13.8-14.4,13.8H178v10.1h-9.7V38.5h29.6C206.5,38.5,212.3,43.9,212.3,52.3z
					 M202.6,52.3c0-5.7-4.5-5.7-7.4-5.7H178V58h17.2C198.1,58,202.6,58,202.6,52.3z"/>
				<path class="st0" d="M217.1,57.3c0-12.5,7.1-19.3,23.7-19.3c16.5,0,23.7,6.9,23.7,19.3c0,12.5-7.2,19.4-23.7,19.4
					C224.2,76.7,217.1,69.8,217.1,57.3z M254.8,57.3c0-7.7-3.9-11.2-14-11.2s-14,3.5-14,11.2c0,7.8,3.9,11.3,14,11.3
					S254.8,65,254.8,57.3z"/>
				<path class="st0" d="M309,68.1v8.1h-38.8V38.5h9.7v29.6H309z"/>
				<path class="st0" d="M298.3,38.5H310l14.5,17.2L339,38.5h11.7l-21.3,25.3v12.4h-9.7V63.8L298.3,38.5z"/>
				<path class="st0" d="M412.9,76.2h-9.7V50.3l-15.7,25.9h-7l-15.7-25.9v25.9h-9.7V38.5h13.1L384,65.1l15.8-26.6h13.1V76.2z"/>
				<path class="st0" d="M454.7,68.2h-22.6l-4,8h-10.7l19.4-37.7h13.1l19.5,37.7h-10.7L454.7,68.2z M451.1,61l-7.6-15.3L435.7,61
					H451.1z"/>
				<path class="st0" d="M509.6,46.6h-18.3v29.6h-9.7V46.6h-18.3v-8.1h46.3V46.6z"/>
				<path class="st0" d="M565,38.5v37.7h-9.7V61.4h-30.7v14.8h-9.7V38.5h9.7v14.8h30.7V38.5H565z"/>
			</g>
		</g>
		<g>
			<g>
				<path class="st1" d="M550.3,115.3c-10.4,0-14.7-1.9-15.4-6.8l-0.1-0.4h4.7l0.1,0.3c0.7,3,4.8,3.6,11,3.6c5.3,0,9.6-0.3,9.6-3.6
					c0-3-2.5-3.3-10.4-3.7c-12.1-0.6-14.3-2.8-14.3-6.9c0-3,1.6-6.4,14.1-6.4c8.8,0,13.4,2.1,14.1,6.3l0.1,0.4h-4.7l-0.1-0.3
					c-0.8-2.9-5.3-3.1-10.1-3.1c-6.1,0-8.7,0.5-8.7,3.3c0,2.9,2.5,3.2,9.6,3.6c9.9,0.5,15.1,1.1,15.1,6.5
					C565,113.4,561,115.3,550.3,115.3z"/>
				<polygon class="st1" points="168.4,115 168.4,91.8 173,91.8 173,111.4 192.3,111.4 192.3,115 				"/>
				<path class="st1" d="M314.2,115l-2.7-5.3h-16l-2.7,5.3h-5.1l12-23.2h7.6l12,23.2H314.2z M310,106.7l-5.9-11.9H303l-6,11.9H310z"
					/>
				<path class="st1" d="M412.2,115V91.8h21.1c4.5,0,6.5,1.8,6.5,5.7c0,1.5-0.6,3-1.7,4.3l-0.7,0.8l0.9,0.6c2.1,1.3,3.1,3.1,3.1,5.5
					c0,4.1-2.6,6.4-7.2,6.4h-22V115z M432.5,111.8c2.1,0,4.2-0.3,4.2-3.5s-2.1-3.5-4.2-3.5h-15.7v7H432.5z M430.9,101.6
					c2.1,0,4.2-0.3,4.2-3.5s-2.1-3.4-4.2-3.4h-14.1v6.9H430.9z"/>
			</g>
		</g>
	</g>
</g>
</svg>
